<?xml version="1.0" standalone="no"?>
<!DOCTYPE svg PUBLIC "-//W3C//DTD SVG 20010904//EN"
 "http://www.w3.org/TR/2001/REC-SVG-20010904/DTD/svg10.dtd">
<svg version="1.0" xmlns="http://www.w3.org/2000/svg"
 width="100.000000pt" height="100.000000pt" viewBox="0 0 100.000000 100.000000"
 preserveAspectRatio="xMidYMid meet">

<g transform="translate(0.000000,100.000000) scale(0.100000,-0.100000)"
fill="#ffffff" stroke="none">
<path d="M533 881 c-94 -59 -81 -197 22 -237 42 -16 48 -16 90 0 25 10 51 26
58 36 8 11 28 20 52 22 50 4 57 27 16 51 -18 10 -39 37 -50 62 -23 52 -56 76
-114 82 -30 3 -51 -1 -74 -16z m121 -77 c19 -19 4 -57 -21 -52 -26 5 -39 34
-24 52 17 20 26 20 45 0z"/>
<path d="M331 794 c-63 -57 -120 -166 -124 -238 l-2 -50 43 -12 c83 -25 135
-82 148 -162 6 -36 9 -40 24 -32 35 19 50 83 50 213 -1 112 -3 125 -25 162
-20 31 -25 54 -25 103 0 54 -2 62 -19 62 -10 0 -42 -21 -70 -46z"/>
<path d="M655 593 c-22 -8 -54 -12 -71 -10 -18 3 -37 0 -43 -6 -7 -7 -11 -53
-11 -119 0 -88 -4 -116 -20 -147 -23 -47 -67 -85 -115 -101 -53 -17 -65 -3
-65 77 0 63 -2 67 -40 105 -27 28 -46 39 -62 36 -23 -3 -23 -4 -23 -163 l0
-160 228 -3 c204 -2 228 -1 234 14 9 24 -10 49 -41 52 -36 5 -33 27 10 75 59
64 87 138 92 238 3 54 0 94 -7 108 -13 24 -12 24 -66 4z"/>
</g>
</svg>
